<?xml version="1.0" encoding="UTF-8"?>
<!DOCTYPE svg PUBLIC "-//W3C//DTD SVG 1.1//EN" "http://www.w3.org/Graphics/SVG/1.1/DTD/svg11.dtd">
<svg version="1.1" xmlns="http://www.w3.org/2000/svg" xmlns:xlink="http://www.w3.org/1999/xlink" x="0" y="0" width="500" height="500" viewBox="0, 0, 500, 500">
  <g id="Background">
    <rect x="0" y="0" width="500" height="500" fill="#000000" fill-opacity="0"/>
  </g>
  <g id="Layer_1">
    <path d="M249,492 C114.792,492 6,383.208 6,249 C6,114.792 114.792,6 249,6 C383.208,6 492,114.792 492,249 C492,383.208 383.208,492 249,492 z" fill="#2E6381"/>
    <path d="M248.956,11.383 C380.167,11.383 486.529,117.745 486.529,248.956 C486.529,380.167 380.167,486.529 248.956,486.529 C117.745,486.529 11.383,380.167 11.383,248.956 C11.383,117.745 117.745,11.383 248.956,11.383 z M248.956,22.878 C124.096,22.878 22.878,124.096 22.878,248.956 C22.878,373.816 124.096,475.034 248.956,475.034 C373.816,475.034 475.034,373.816 475.034,248.956 C475.034,124.096 373.816,22.878 248.956,22.878 z" fill-opacity="0" stroke="#FFFFFF" stroke-width="13"/>
    <path d="M265.055,116.24" fill="#FFFFFF" fill-opacity="0.7"/>
    <path d="M226.526,122.056" fill="#FFFFFF" fill-opacity="0.7"/>
    <path d="M218.079,126.967" fill="#FFFFFF" fill-opacity="0.7"/>
    <path d="M387.333,160.629 C391.776,159.145 395.721,157.173 399.178,153.716 C404.119,148.286 407.078,141.373 407.078,133.971 C407.078,126.559 404.119,119.655 399.178,114.216 L384.862,99.9 C379.433,94.469 372.519,92 365.108,92 C357.706,92 350.792,94.963 345.362,99.9 C341.906,103.356 339.933,107.306 338.449,111.745 L334.494,107.8 C329.065,102.369 322.16,99.9 314.749,99.9 C307.347,99.9 300.433,102.863 295.004,107.8 C291.547,111.257 289.565,115.202 288.09,119.157 L287.094,118.171 C281.665,112.741 274.76,110.271 267.349,110.271 C259.947,110.271 253.033,113.229 247.604,118.171 C242.662,123.6 239.694,130.514 239.694,137.916 C239.694,145.327 242.662,152.241 247.604,157.671 L269.819,179.886 L178.965,270.243 L156.749,248.027 C151.319,242.598 144.406,240.127 137.004,240.127 C129.592,240.127 122.678,243.086 117.249,248.027 C111.819,253.457 109.349,260.371 109.349,267.773 C109.349,275.184 112.308,282.098 117.249,287.527 L118.235,288.514 C113.792,289.998 109.847,291.971 106.387,295.427 C101.449,300.857 98.487,307.771 98.487,315.173 C98.487,322.584 101.449,329.498 106.387,334.927 L110.833,339.371 C106.387,340.855 102.437,342.827 98.98,346.284 C88.118,357.143 88.118,374.916 98.98,385.784 L113.294,400.1 C118.733,405.529 125.647,408 133.049,408 C140.451,408 147.365,405.041 152.804,400.1 C156.251,396.643 158.233,392.698 159.708,388.255 L163.662,392.2 C169.092,397.629 176.006,400.1 183.408,400.1 C190.819,400.1 197.733,397.141 203.162,392.2 C206.619,388.743 208.592,384.798 210.076,380.345 L211.062,381.341 C216.492,386.771 223.406,389.241 230.808,389.241 C238.219,389.241 245.133,386.273 250.562,381.341 C255.494,375.902 258.462,368.998 258.462,361.586 C258.462,354.184 255.494,347.271 250.562,341.841 L223.406,314.684 L314.251,223.829 L341.408,250.986 C346.847,256.416 353.76,258.886 361.162,258.886 C368.565,258.886 375.478,255.927 380.908,250.986 C386.347,245.557 388.808,238.643 388.808,231.241 C388.808,223.829 385.849,216.916 380.908,211.486 L379.921,210.5 C384.365,209.016 388.319,207.043 391.776,203.586 C397.206,198.157 399.676,191.243 399.676,183.841 C399.676,176.429 396.708,169.516 391.776,164.086 L387.333,160.629 z M142.433,370.971 C144.894,373.441 146.378,376.898 146.378,380.345 C146.378,383.802 144.894,387.259 142.433,389.729 C137.492,394.671 129.094,394.671 124.162,389.729 L109.847,375.414 C104.906,370.473 104.906,362.084 109.847,357.143 C114.778,352.202 123.176,352.202 128.108,357.143 L142.433,370.971 z M192.792,381.829 C187.851,386.771 179.462,386.771 174.521,381.829 L117.249,324.557 C114.778,322.086 113.294,318.629 113.294,315.173 C113.294,311.716 114.778,308.259 117.249,305.798 C122.19,300.857 130.578,300.857 135.519,305.798 L192.792,363.559 C198.221,368.5 198.221,376.898 192.792,381.829 z M244.147,362.084 C244.147,365.541 242.662,368.998 240.192,371.459 C235.251,376.4 226.862,376.4 221.921,371.459 L203.651,353.198 L146.378,295.427 L128.108,277.157 C125.647,274.686 124.162,271.229 124.162,267.773 C124.162,264.316 125.647,260.859 128.108,258.398 C130.09,256.416 133.547,254.941 137.004,254.941 C140.451,254.941 143.908,256.416 146.378,258.886 L240.69,353.198 C242.662,355.171 244.147,358.627 244.147,362.084 z M213.533,304.802 L189.335,280.614 L280.19,189.759 L304.378,213.957 L213.533,304.802 z M370.547,241.114 C365.606,246.055 357.208,246.055 352.276,241.114 L257.965,147.3 C255.494,144.829 254.019,141.373 254.019,137.916 C254.019,134.459 255.494,131.002 257.965,128.541 C262.906,123.6 271.294,123.6 276.235,128.541 L294.506,146.802 L351.778,204.084 L370.049,222.345 C372.519,224.816 374.004,228.273 374.004,231.729 C374.004,235.684 373.008,238.643 370.547,241.114 z M351.778,119.655 C351.778,116.198 353.262,112.741 355.235,110.759 C360.176,105.825 368.565,105.825 373.506,110.759 L387.821,125.084 C390.79,127.545 392.265,131.002 392.265,134.459 C392.265,137.916 390.79,141.373 388.319,143.843 C383.378,148.784 374.99,148.784 370.049,143.843 L355.733,129.527 C353.262,126.559 351.778,123.6 351.778,119.655 z M380.908,193.714 C375.976,198.655 367.578,198.655 362.647,193.714 L305.365,136.441 C300.433,131.5 300.433,123.102 305.365,118.171 C310.306,113.229 318.694,113.229 323.635,118.171 L344.865,139.4 L359.19,153.716 L380.419,174.945 C382.89,177.416 384.365,180.873 384.365,184.329 C384.862,188.284 383.378,191.243 380.908,193.714 z" fill="#FFFFFF"/>
  </g>
</svg>
